<svg width="43" height="23" viewBox="0 0 43 23" fill="none" xmlns="http://www.w3.org/2000/svg">
<path d="M3.2 11.432V10.248H5.008C5.31733 10.248 5.57867 10.2 5.792 10.104C6.016 10.008 6.18667 9.87467 6.304 9.704C6.42133 9.52267 6.48 9.304 6.48 9.048C6.48 8.664 6.352 8.376 6.096 8.184C5.84 7.992 5.47733 7.896 5.008 7.896H3.888V14.904H5.264C5.616 14.904 5.93067 14.8613 6.208 14.776C6.48533 14.68 6.704 14.5307 6.864 14.328C7.03467 14.1147 7.12 13.8267 7.12 13.464C7.12 13.2293 7.072 13.0267 6.976 12.856C6.88 12.6853 6.74667 12.5467 6.576 12.44C6.40533 12.3333 6.208 12.2587 5.984 12.216C5.77067 12.1627 5.53067 12.136 5.264 12.136H3.2V10.664H5.568C6.112 10.664 6.64 10.7227 7.152 10.84C7.664 10.9573 8.128 11.1493 8.544 11.416C8.96 11.672 9.29067 12.0027 9.536 12.408C9.792 12.8027 9.92 13.2827 9.92 13.848C9.92 14.5947 9.73867 15.1973 9.376 15.656C9.024 16.1147 8.52267 16.456 7.872 16.68C7.22133 16.8933 6.45333 17 5.568 17H1.184V5.8H5.296C6.07467 5.8 6.75733 5.90667 7.344 6.12C7.94133 6.32267 8.41067 6.63733 8.752 7.064C9.104 7.48 9.28 8.008 9.28 8.648C9.28 9.23467 9.104 9.736 8.752 10.152C8.41067 10.568 7.94133 10.888 7.344 11.112C6.75733 11.3253 6.07467 11.432 5.296 11.432H3.2ZM11.729 5.8H14.433V13.128C14.433 13.6933 14.5823 14.152 14.881 14.504C15.1797 14.856 15.6277 15.032 16.225 15.032C16.833 15.032 17.2863 14.856 17.585 14.504C17.8837 14.152 18.033 13.6933 18.033 13.128V5.8H20.737V13.32C20.737 14.024 20.6197 14.6373 20.385 15.16C20.161 15.6827 19.841 16.1147 19.425 16.456C19.0197 16.7867 18.5397 17.0373 17.985 17.208C17.441 17.3787 16.8543 17.464 16.225 17.464C15.5957 17.464 15.009 17.3787 14.465 17.208C13.921 17.0373 13.441 16.7867 13.025 16.456C12.6197 16.1147 12.2997 15.6827 12.065 15.16C11.841 14.6373 11.729 14.024 11.729 13.32V5.8ZM30.7558 5.8H33.3638V17.56L25.6198 10.696V17H23.0278V5.24L30.7558 12.104V5.8Z" fill="black"/>
<path d="M36.344 14.328C36.7173 14.6373 37.0533 14.8827 37.352 15.064C37.6613 15.2347 37.9333 15.3573 38.168 15.432C38.4027 15.496 38.6053 15.528 38.776 15.528C39.0213 15.528 39.2027 15.4747 39.32 15.368C39.4373 15.2613 39.496 15.1227 39.496 14.952C39.496 14.792 39.448 14.6587 39.352 14.552C39.256 14.4347 39.0907 14.3227 38.856 14.216C38.632 14.1093 38.3227 13.9973 37.928 13.88C37.576 13.752 37.24 13.6027 36.92 13.432C36.6107 13.2507 36.3547 13.0107 36.152 12.712C35.9493 12.4133 35.848 12.0293 35.848 11.56C35.848 11.112 35.9653 10.7333 36.2 10.424C36.4453 10.1147 36.7707 9.88 37.176 9.72C37.592 9.56 38.0667 9.48 38.6 9.48C39.0267 9.48 39.4213 9.528 39.784 9.624C40.1573 9.72 40.504 9.848 40.824 10.008C41.1547 10.168 41.464 10.3547 41.752 10.568L40.888 12.136C40.5787 11.848 40.2267 11.6133 39.832 11.432C39.4373 11.24 39.0747 11.144 38.744 11.144C38.52 11.144 38.3493 11.1867 38.232 11.272C38.1253 11.3573 38.072 11.4693 38.072 11.608C38.072 11.768 38.136 11.9013 38.264 12.008C38.4027 12.1147 38.5947 12.216 38.84 12.312C39.096 12.3973 39.4053 12.5093 39.768 12.648C40.152 12.7867 40.504 12.9467 40.824 13.128C41.1547 13.3093 41.416 13.5387 41.608 13.816C41.8107 14.0933 41.912 14.4613 41.912 14.92C41.912 15.7093 41.6667 16.3067 41.176 16.712C40.696 17.1067 40.0187 17.304 39.144 17.304C38.6107 17.304 38.1147 17.24 37.656 17.112C37.208 16.9947 36.792 16.8347 36.408 16.632C36.024 16.4187 35.6667 16.184 35.336 15.928L36.344 14.328Z" fill="#FF4500"/>
</svg>
